<svg width="390" height="158" viewBox="0 0 390 158" fill="none" xmlns="http://www.w3.org/2000/svg">
<path d="M41.34 0H67.45L108.15 113.34H86.42L83.66 105.72C82.04 101.67 80.25 98.26 77.34 95.34C71.83 90.31 64.37 87.88 55.13 87.72H53.51C43.94 87.88 36.65 90.15 31.29 94.85C27.89 97.77 26.1 101.66 24.48 105.23L21.4 113.34H0L41.34 0ZM70.85 72.48L54.31 20.92L37.45 72.48H70.85Z" fill="white"/>
<path d="M121.28 0H142.04V94.86H177.71V113.34H121.28V0Z" fill="white"/>
<path d="M191.01 0H222.47C235.28 0 259.28 3.07998 259.28 27.89C259.28 50.43 238.2 53.51 238.2 53.51C238.2 53.51 268.85 53.83 268.85 83.67C268.85 105.4 252.31 113.34 230.58 113.34H191.02V0H191.01ZM209.01 14.76V30V45.4H224.73H225.38C235.27 45.4 241.11 39.89 241.11 30.16C241.11 20.43 235.27 14.76 225.38 14.76H224.73H209.01ZM228.3 62.75H209.49V80.1V97.94H227.33H228.14C239.65 97.94 246.3 91.45 246.3 80.43C246.3 69.24 239.82 62.75 228.3 62.75H227.49Z" fill="white"/>
<path d="M317.97 0H344.08L384.78 113.34H363.05L360.29 105.72C358.67 101.67 356.89 98.26 353.97 95.34C348.46 90.31 341 87.88 331.76 87.72H330.14C320.57 87.88 313.28 90.15 307.93 94.85C304.53 97.77 302.74 101.66 301.12 105.23L298.04 113.34H276.64L317.97 0ZM347.48 72.48L330.94 20.92L314.08 72.48H347.48Z" fill="white"/>
<path d="M0.73999 157.12V137.85H5.06998V157.12H0.73999ZM4.29999 149.33V145.53H13.94V149.33H4.29999ZM13.17 157.12V137.85H17.53V157.12H13.17Z" fill="white"/>
<path d="M33.1899 157.65C31.4499 157.65 29.9299 157.34 28.6399 156.73C27.3499 156.11 26.2799 155.31 25.4299 154.31C24.5899 153.31 23.9499 152.24 23.5299 151.09C23.1099 149.94 22.8999 148.81 22.8999 147.72V147.14C22.8999 145.94 23.1199 144.76 23.5499 143.59C23.9799 142.42 24.6299 141.36 25.4999 140.41C26.3699 139.46 27.4399 138.7 28.7199 138.13C29.9999 137.56 31.4899 137.27 33.1999 137.27C34.8899 137.27 36.3799 137.56 37.6599 138.13C38.9399 138.7 40.0199 139.46 40.8799 140.41C41.7399 141.36 42.3899 142.42 42.8299 143.59C43.2699 144.76 43.4899 145.94 43.4899 147.14V147.72C43.4899 148.81 43.2799 149.93 42.8599 151.09C42.4399 152.24 41.7999 153.32 40.9599 154.31C40.1199 155.3 39.0399 156.11 37.7499 156.73C36.4499 157.34 34.9299 157.65 33.1899 157.65ZM33.1899 153.59C34.0999 153.59 34.9299 153.43 35.6599 153.11C36.3899 152.79 37.0099 152.35 37.5199 151.79C38.0299 151.23 38.4199 150.58 38.6899 149.84C38.9599 149.1 39.0999 148.31 39.0999 147.46C39.0999 146.56 38.9599 145.74 38.6899 144.99C38.4199 144.24 38.0199 143.59 37.4999 143.05C36.9799 142.51 36.3599 142.08 35.6299 141.78C34.8999 141.48 34.0899 141.33 33.1899 141.33C32.2699 141.33 31.4599 141.48 30.7299 141.78C30.0099 142.08 29.3899 142.5 28.8699 143.05C28.3499 143.6 27.9599 144.24 27.6899 144.99C27.4299 145.74 27.2899 146.56 27.2899 147.46C27.2899 148.31 27.4199 149.1 27.6899 149.84C27.9499 150.58 28.3499 151.23 28.8699 151.79C29.3899 152.35 30.0099 152.79 30.7299 153.11C31.4499 153.43 32.2699 153.59 33.1899 153.59Z" fill="white"/>
<path d="M55.4501 157.65C53.7101 157.65 52.2401 157.37 51.0401 156.8C49.8401 156.24 48.9301 155.48 48.3101 154.52C47.6801 153.56 47.3701 152.46 47.3701 151.21H51.5901C51.5901 151.7 51.7301 152.16 52.0001 152.58C52.2701 153 52.6901 153.34 53.2601 153.6C53.8201 153.85 54.5501 153.98 55.4501 153.98C56.2601 153.98 56.9401 153.87 57.4801 153.66C58.0301 153.45 58.4401 153.15 58.7201 152.78C59.0001 152.4 59.1401 151.97 59.1401 151.47C59.1401 150.85 58.8801 150.37 58.3501 150.01C57.8201 149.65 56.9701 149.42 55.7901 149.31L54.3401 149.2C52.4201 149.02 50.8901 148.42 49.7501 147.39C48.6001 146.36 48.0301 144.99 48.0301 143.28C48.0301 142.03 48.3201 140.96 48.9101 140.06C49.5001 139.16 50.3201 138.47 51.3801 137.99C52.4401 137.51 53.6901 137.26 55.1301 137.26C56.6401 137.26 57.9401 137.52 59.0301 138.05C60.1101 138.58 60.9401 139.31 61.5201 140.25C62.1001 141.19 62.3901 142.29 62.3901 143.54H58.1701C58.1701 143.06 58.0601 142.63 57.8301 142.23C57.6001 141.83 57.2601 141.52 56.8101 141.28C56.3601 141.04 55.8001 140.92 55.1301 140.92C54.5001 140.92 53.9601 141.02 53.5301 141.22C53.1001 141.42 52.7801 141.7 52.5701 142.06C52.3601 142.42 52.2501 142.82 52.2501 143.26C52.2501 143.79 52.4401 144.26 52.8301 144.66C53.2201 145.07 53.8501 145.3 54.7301 145.37L56.2101 145.5C57.6201 145.62 58.8601 145.93 59.9301 146.41C61.0001 146.89 61.8501 147.55 62.4501 148.39C63.0601 149.23 63.3601 150.24 63.3601 151.44C63.3601 152.67 63.0401 153.76 62.4001 154.69C61.7601 155.62 60.8501 156.35 59.6701 156.86C58.4901 157.4 57.0801 157.65 55.4501 157.65Z" fill="white"/>
<path d="M68.4399 157.12V137.69H72.7699V157.12H68.4399ZM72.2399 151.61V147.86H75.6999C76.3699 147.86 76.9499 147.73 77.4299 147.46C77.9099 147.2 78.2799 146.82 78.5399 146.34C78.7899 145.86 78.9199 145.3 78.9199 144.66C78.9199 144.01 78.7899 143.44 78.5399 142.96C78.2799 142.48 77.9099 142.1 77.4299 141.84C76.9399 141.58 76.3699 141.44 75.6999 141.44H72.2399V137.69H75.4899C77.1299 137.69 78.5299 137.96 79.6999 138.51C80.8699 139.05 81.7699 139.83 82.3899 140.85C83.0099 141.86 83.3299 143.06 83.3299 144.45V144.87C83.3299 146.24 83.0199 147.44 82.3899 148.45C81.7599 149.46 80.8699 150.24 79.6999 150.79C78.5299 151.34 77.1199 151.61 75.4899 151.61H72.2399Z" fill="white"/>
<path d="M88.21 157.12V137.85H92.54V157.12H88.21Z" fill="white"/>
<path d="M97.4302 141.65V137.85H112.64V141.65H97.4302ZM102.87 157.12V141.12H107.2V157.12H102.87Z" fill="white"/>
<path d="M113.93 157.12L120.29 137.85H127.29L133.89 157.12H129.4L124.07 140.85L125.44 141.4H122.03L123.46 140.85L118.26 157.12H113.93ZM118.77 152.35L120.09 148.76H127.64L128.99 152.35H118.77Z" fill="white"/>
<path d="M138.52 157.12V137.85H142.85V157.12H138.52ZM142.32 157.12V153.32H150.4V157.12H142.32Z" fill="white"/>
<path d="M155.41 157.12V137.85H159.74V157.12H155.41Z" fill="white"/>
<path d="M164.63 141.65V137.85H179.84V141.65H164.63ZM170.07 157.12V141.12H174.4V157.12H170.07Z" fill="white"/>
<path d="M188.47 149.84L182.85 137.85H187.29L191.33 146.8L190.56 146.56H192.78L191.96 146.8L195.6 137.85H199.8L194.63 149.84H188.47ZM189.42 157.12V149.22H193.67V157.12H189.42Z" fill="white"/>
<path d="M217.52 157.68C216.09 157.68 214.85 157.4 213.78 156.85C212.72 156.3 211.88 155.54 211.29 154.58C210.69 153.62 210.39 152.55 210.39 151.37V151C210.39 149.72 210.75 148.57 211.47 147.57C212.19 146.57 213.12 145.81 214.27 145.3L215.99 147.52C215.51 147.84 215.11 148.29 214.79 148.88C214.46 149.47 214.3 150.16 214.3 150.95C214.3 151.57 214.43 152.13 214.68 152.63C214.94 153.13 215.32 153.52 215.83 153.79C216.34 154.06 216.98 154.2 217.76 154.2C218.78 154.2 219.72 153.93 220.57 153.38C221.42 152.84 222.11 151.97 222.63 150.79C223.15 149.61 223.41 148.07 223.41 146.17H227.11C227.11 148.05 226.86 149.71 226.36 151.13C225.86 152.56 225.16 153.75 224.27 154.72C223.38 155.69 222.36 156.42 221.19 156.93C220.03 157.43 218.8 157.68 217.52 157.68ZM223.83 157.12L216.46 149.17C215.65 148.29 215.01 147.52 214.53 146.86C214.05 146.2 213.71 145.56 213.5 144.94C213.29 144.32 213.18 143.66 213.18 142.93C213.18 141.86 213.42 140.92 213.89 140.12C214.37 139.32 215.1 138.69 216.09 138.25C217.09 137.8 218.37 137.58 219.96 137.58C220.61 137.58 221.27 137.61 221.95 137.67C222.63 137.73 223.22 137.81 223.73 137.9V141.38C223.38 141.33 222.95 141.28 222.44 141.24C221.93 141.2 221.42 141.16 220.92 141.13C220.42 141.1 220.01 141.09 219.69 141.09C218.65 141.09 217.96 141.27 217.6 141.63C217.25 141.99 217.07 142.5 217.07 143.15C217.07 143.75 217.21 144.33 217.5 144.88C217.79 145.43 218.27 146.07 218.94 146.79L228.47 157.11H223.83V157.12ZM220.92 146.72V143.63H228.42V146.72H220.92Z" fill="white"/>
<path d="M241.02 157.12V137.85H245.35V157.12H241.02ZM244.82 157.12V153.32H252.9V157.12H244.82Z" fill="white"/>
<path d="M257.92 157.12V137.85H262.25V157.12H257.92Z" fill="white"/>
<path d="M268.74 157.12V137.85H273.07V157.12H268.74ZM272.54 141.44V137.85H280.3V141.44H272.54ZM272.54 149.39V145.77H279.99V149.36L272.54 149.39Z" fill="white"/>
<path d="M285.64 157.12V137.85H289.86V157.12H285.64ZM289.34 141.44V137.85H297.58V141.44H289.34ZM289.34 149.12V145.53H297.16V149.12H289.34ZM289.34 157.12V153.53H297.76V157.12H289.34Z" fill="white"/>
<path d="M310.01 157.65C308.27 157.65 306.8 157.37 305.6 156.8C304.4 156.24 303.49 155.48 302.87 154.52C302.25 153.56 301.93 152.46 301.93 151.21H306.15C306.15 151.7 306.29 152.16 306.56 152.58C306.83 153 307.25 153.34 307.82 153.6C308.38 153.85 309.11 153.98 310.01 153.98C310.82 153.98 311.5 153.87 312.04 153.66C312.58 153.45 313 153.15 313.28 152.78C313.56 152.4 313.7 151.97 313.7 151.47C313.7 150.85 313.44 150.37 312.91 150.01C312.38 149.65 311.53 149.42 310.35 149.31L308.9 149.2C306.98 149.02 305.45 148.42 304.31 147.39C303.16 146.36 302.59 144.99 302.59 143.28C302.59 142.03 302.88 140.96 303.47 140.06C304.06 139.16 304.88 138.47 305.94 137.99C307 137.51 308.25 137.26 309.69 137.26C311.2 137.26 312.5 137.52 313.58 138.05C314.66 138.58 315.5 139.31 316.08 140.25C316.66 141.19 316.95 142.29 316.95 143.54H312.73C312.73 143.06 312.61 142.63 312.39 142.23C312.16 141.83 311.82 141.52 311.37 141.28C310.92 141.04 310.36 140.92 309.69 140.92C309.06 140.92 308.52 141.02 308.09 141.22C307.66 141.42 307.34 141.7 307.13 142.06C306.92 142.42 306.81 142.82 306.81 143.26C306.81 143.79 307 144.26 307.39 144.66C307.78 145.07 308.41 145.3 309.29 145.37L310.77 145.5C312.18 145.62 313.42 145.93 314.49 146.41C315.56 146.89 316.4 147.55 317.01 148.39C317.62 149.23 317.92 150.24 317.92 151.44C317.92 152.67 317.6 153.76 316.96 154.69C316.32 155.62 315.41 156.35 314.23 156.86C313.06 157.4 311.65 157.65 310.01 157.65Z" fill="white"/>
<path d="M320.84 141.65V137.85H336.05V141.65H320.84ZM326.28 157.12V141.12H330.61V157.12H326.28Z" fill="white"/>
<path d="M344.68 149.84L339.06 137.85H343.5L347.54 146.8L346.77 146.56H348.99L348.17 146.8L351.81 137.85H356.01L350.83 149.84H344.68ZM345.63 157.12V149.22H349.88V157.12H345.63Z" fill="white"/>
<path d="M360.5 157.12V137.85H364.83V157.12H360.5ZM364.3 157.12V153.32H372.38V157.12H364.3Z" fill="white"/>
<path d="M377.34 157.12V137.85H381.56V157.12H377.34ZM381.04 141.44V137.85H389.28V141.44H381.04ZM381.04 149.12V145.53H388.86V149.12H381.04ZM381.04 157.12V153.53H389.46V157.12H381.04Z" fill="white"/>
</svg>
