<?xml version="1.0" encoding="utf-8"?>
<!-- Generator: Adobe Illustrator 24.2.3, SVG Export Plug-In . SVG Version: 6.00 Build 0)  -->
<svg version="1.1" id="Layer_8" xmlns="http://www.w3.org/2000/svg" xmlns:xlink="http://www.w3.org/1999/xlink" x="0px" y="0px"
	 viewBox="0 0 2297.99 628.7" style="enable-background:new 0 0 2297.99 628.7;" xml:space="preserve">
<style type="text/css">
	.st0{fill:#FFFFFF;}
	.st1{fill:url(#SVGID_1_);}
</style>
<g>
	<g>
		<path class="st0" d="M1420.31,369.63c7.23,0,13.36,2.52,18.41,7.56c5.04,5.04,7.45,11.18,7.23,18.41c0,7.23-2.58,13.37-7.73,18.41
			c-5.15,5.04-11.34,7.56-18.57,7.56c-7.02-0.22-13.04-2.85-18.08-7.89c-5.04-5.04-7.45-11.28-7.23-18.74
			c0-7.01,2.52-13.04,7.56-18.08C1406.94,371.83,1413.07,369.42,1420.31,369.63z"/>
	</g>
	<path class="st0" d="M252.46,202.59c-7.45,3.18-13.97,7.56-19.56,13.15c-5.59,5.59-9.97,12.11-13.15,19.56
		c-3.18,7.45-4.77,15.34-4.77,23.67v32.87h-23.67v36.49h23.67v99.6h43.72v-99.51h43.48v-0.09h10.1v-36.49h-10.1v-0.11h-43.48v-30.79
		c0-7.67,1.53-13.69,4.6-18.08c3.07-4.38,7.45-6.57,13.15-6.57h35.83v-38.46h-35.83C267.91,197.83,259.91,199.42,252.46,202.59z"/>
	<path class="st0" d="M425.36,386.5c-3.07,1.76-6.36,3.18-9.86,4.27c-3.51,1.1-7.12,1.64-10.85,1.64c-8.11,0-14.35-1.26-18.74-3.78
		c-4.39-2.52-7.62-5.86-9.7-10.03c-2.09-4.16-3.29-8.98-3.62-14.46c-0.33-5.47-0.49-11.18-0.49-17.09v-83.49h-45.03v83.49
		c0,28.27,5.15,48.87,15.45,61.8c11.18,14.46,30.13,21.69,56.87,21.69c16.87,0,31.01-5.04,42.4-15.12v-0.33l-15.78-28.6H425.36z"/>
	<rect x="450.01" y="263.57" class="st0" width="45.03" height="165.34"/>
	<path class="st0" d="M648.88,270.14h-0.33c-12.28-6.13-24.98-9.2-38.13-9.2c-22.35,0-39.34,8-50.95,24v-21.37h-44.7v164.35h44.7
		v-90.39c0.87-5.26,2.68-10.19,5.42-14.79c2.74-4.6,6.08-8.6,10.03-12c3.94-3.39,8.43-6.02,13.48-7.89
		c5.04-1.86,10.41-2.79,16.11-2.79c8.32,0,16.11,2.09,23.34,6.25l0.33,0.33l16.76-29.91L648.88,270.14z"/>
	<path class="st0" d="M770.83,285.71c-6.14-8.04-13.48-14.18-22.02-18.41c-8.55-4.24-18.52-6.36-29.91-6.36
		c-11.62,0-22.57,2.25-32.87,6.74c-10.3,4.49-19.29,10.58-26.95,18.24c-7.67,7.67-13.75,16.66-18.24,26.95
		c-4.49,10.3-6.74,21.37-6.74,33.2c0,11.62,2.24,22.57,6.74,32.87c4.49,10.3,10.57,19.29,18.24,26.95
		c7.67,7.67,16.65,13.7,26.95,18.08c10.3,4.38,21.25,6.57,32.87,6.57c15.78,0,29.03-4.16,39.77-12.49l0.33-0.33l-16.44-29.25v-0.66
		h-0.33c-4.82,2.41-10.63,3.62-17.42,3.62c-6.36,0-12.28-1.21-17.75-3.63c-5.48-2.42-10.35-5.72-14.63-9.9
		c-4.27-4.18-7.62-9.02-10.03-14.51c-2.41-5.5-3.62-11.32-3.62-17.49c0-6.38,1.2-12.37,3.62-17.98c2.41-5.61,5.75-10.45,10.03-14.51
		c4.27-4.07,9.15-7.31,14.63-9.73c5.48-2.42,11.39-3.63,17.75-3.63c6.13,0,12,1.16,17.59,3.46c5.59,2.31,10.52,5.55,14.79,9.72
		c4.27,4.18,7.61,9.01,10.03,14.5c2.41,5.5,3.62,11.43,3.62,17.8v82.39h43.06V263.57h-43.06V285.71z"/>
	<polygon class="st0" points="926.96,317.15 951.28,317.15 951.28,280.66 906.58,280.66 	"/>
	<path class="st0" d="M906.41,384.53c-3.62-3.5-5.42-7.78-5.42-12.82V221.16h-43.72v59.5h-23.67v36.49h23.67v49.31
		c0,8.55,1.64,16.55,4.93,24c3.29,7.45,7.73,13.97,13.31,19.56c5.59,5.59,12.16,9.97,19.72,13.15c7.56,3.18,15.61,4.77,24.16,4.77
		h31.88v-38.13H919.4C914.36,389.79,910.03,388.04,906.41,384.53z"/>
	<polygon class="st0" points="1539.31,317.15 1563.63,317.15 1563.63,280.66 1518.93,280.66 	"/>
	<path class="st0" d="M1518.77,384.53c-3.62-3.5-5.42-7.78-5.42-12.82V221.16h-43.72v59.5h-23.67v36.49h23.67v49.31
		c0,8.55,1.64,16.55,4.93,24c3.29,7.45,7.73,13.97,13.31,19.56c5.59,5.59,12.16,9.97,19.72,13.15c7.56,3.18,15.61,4.77,24.16,4.77
		h31.88v-38.13h-31.88C1526.71,389.79,1522.38,388.04,1518.77,384.53z"/>
	<rect x="967.72" y="263.57" class="st0" width="43.72" height="164.35"/>
	<rect x="967.72" y="197.83" class="st0" width="43.72" height="38.46"/>
	<path class="st0" d="M1173.15,285.92c-7.67-7.67-16.66-13.75-26.95-18.24c-10.3-4.49-21.37-6.74-33.2-6.74
		c-11.83,0-22.9,2.25-33.2,6.74c-10.3,4.49-19.29,10.58-26.95,18.24c-7.67,7.67-13.75,16.66-18.24,26.95
		c-4.49,10.3-6.74,21.26-6.74,32.87c0,11.62,2.24,22.57,6.74,32.87c4.49,10.3,10.57,19.29,18.24,26.95
		c7.67,7.67,16.65,13.75,26.95,18.24c10.3,4.49,21.37,6.74,33.2,6.74c11.83,0,22.9-2.25,33.2-6.74
		c10.3-4.49,19.28-10.57,26.95-18.24c7.67-7.67,13.75-16.65,18.24-26.95c4.49-10.3,6.74-21.25,6.74-32.87
		c0-11.61-2.25-22.57-6.74-32.87C1186.9,302.58,1180.82,293.59,1173.15,285.92z M1149.32,363c-2.09,5.59-4.93,10.52-8.55,14.79
		c-3.62,4.27-7.78,7.62-12.49,10.03c-4.71,2.41-9.81,3.62-15.28,3.62c-5.48,0-10.63-1.2-15.45-3.62
		c-4.82-2.41-9.04-5.75-12.66-10.03c-3.62-4.27-6.47-9.2-8.55-14.79c-2.09-5.59-3.12-11.67-3.12-18.24c0-6.13,1.04-12,3.12-17.59
		c2.08-5.59,4.93-10.41,8.55-14.46c3.62-4.05,7.83-7.28,12.66-9.7c4.82-2.41,9.97-3.62,15.45-3.62c5.48,0,10.57,1.21,15.28,3.62
		c4.71,2.41,8.88,5.64,12.49,9.7c3.62,4.06,6.46,8.88,8.55,14.46c2.08,5.59,3.12,11.45,3.12,17.59
		C1152.45,351.33,1151.4,357.41,1149.32,363z"/>
	<path class="st0" d="M1363.81,282.63c-11.18-14.46-29.91-21.69-56.21-21.69c-17.09,0-31.34,5.11-42.73,15.32l-0.33,0.32l16.11,28.4
		l0.33,0.33v-0.33c6.57-3.29,13.69-4.93,21.37-4.93c8.11,0,14.35,1.21,18.74,3.63c4.38,2.42,7.56,5.77,9.53,10.05
		c1.97,4.28,3.12,9.23,3.45,14.83c0.33,5.6,0.49,11.48,0.49,17.63v81.73h44.7V346.4c0-15.12-1.21-27.83-3.62-38.13
		C1373.22,297.97,1369.28,289.43,1363.81,282.63z"/>
	<rect x="1211.94" y="263.57" class="st0" width="44.7" height="164.35"/>
	<path class="st0" d="M1727.68,285.92c-7.67-7.67-16.66-13.75-26.95-18.24c-10.3-4.49-21.26-6.74-32.87-6.74
		c-11.83,0-22.96,2.25-33.36,6.74c-10.41,4.49-19.45,10.58-27.12,18.24c-7.67,7.67-13.75,16.66-18.24,26.95
		c-4.49,10.3-6.74,21.37-6.74,33.2c0,11.62,2.25,22.57,6.74,32.87c4.49,10.3,10.57,19.29,18.24,26.95
		c7.67,7.67,16.71,13.7,27.12,18.08c10.41,4.38,21.53,6.57,33.36,6.57c13.58,0,26.46-3.09,38.62-9.28
		c12.16-6.18,22.19-14.8,30.08-25.85l0.66-0.67l-38.13-16.79l-0.66-0.33l-0.33,0.33c-4.39,5.7-9.04,9.37-13.97,11.01
		c-4.93,1.64-10.35,2.46-16.27,2.46c-6.57,0-12.49-1.47-17.75-4.42c-5.26-2.95-9.75-6.6-13.48-10.97
		c-3.73-4.37-6.58-9.22-8.55-14.58c-1.97-5.35-2.96-10.53-2.96-15.56c0-6.55,1.09-12.61,3.29-18.18c2.19-5.57,5.2-10.37,9.04-14.41
		c3.83-4.04,8.38-7.26,13.64-9.66c5.26-2.4,10.85-3.61,16.76-3.61c9.64,0,18.02,2.96,25.15,8.88c7.12,5.92,12.21,13.48,15.29,22.68
		h-62.46l21.04,33.53h83.49l0.33-0.66c1.32-5.92,1.97-12.05,1.97-18.41c0-11.83-2.25-22.9-6.74-33.2
		C1741.42,302.58,1735.34,293.59,1727.68,285.92z"/>
	<path class="st0" d="M1821.03,313.37c3.72-4.27,8.16-7.67,13.31-10.19c5.15-2.52,10.68-3.78,16.6-3.78c8.11,0,15.5,2.52,22.19,7.56
		c6.68,5.04,11.78,11.62,15.28,19.72l0.33,0.33l35.83-23.34l-0.33-0.33c-7.67-13.15-18.03-23.45-31.06-30.9
		c-13.04-7.45-27.12-11.18-42.24-11.18c-11.83,0-22.9,2.25-33.2,6.74c-10.3,4.49-19.29,10.57-26.95,18.24
		c-7.67,7.67-13.75,16.66-18.24,26.95c-4.49,10.3-6.74,21.26-6.74,32.87c0,11.62,2.25,22.57,6.74,32.87
		c4.49,10.3,10.57,19.29,18.24,26.95c7.67,7.67,16.65,13.75,26.95,18.24c10.3,4.49,21.37,6.74,33.2,6.74
		c15.12,0,29.2-3.72,42.24-11.18c13.03-7.45,23.39-17.75,31.06-30.9l0.33-0.33l-35.5-23.34l-0.33-0.33l-0.33,0.66
		c-3.51,8.11-8.6,14.41-15.28,18.9c-6.69,4.49-14.08,6.74-22.19,6.74c-5.92,0-11.45-1.15-16.6-3.45c-5.15-2.3-9.59-5.47-13.31-9.53
		c-3.73-4.05-6.69-8.82-8.88-14.3c-2.19-5.47-3.29-11.39-3.29-17.75c0-6.35,1.09-12.33,3.29-17.91
		C1814.34,322.57,1817.3,317.64,1821.03,313.37z"/>
	<path class="st0" d="M2091.98,283.29c-10.88-14.24-29.54-21.37-55.99-21.37c-8.33,0-16,1.27-23.01,3.81
		c-7.02,2.54-13.37,6.35-19.07,11.44l-0.33,0.33l15.78,28.47l0.33,0.66l0.33-0.33c7.45-3.5,14.35-5.26,20.71-5.26
		c8.1,0,14.35,1.2,18.74,3.61c4.38,2.4,7.56,5.69,9.53,9.84c1.97,4.16,3.12,8.96,3.45,14.43c0.33,5.46,0.49,11.15,0.49,17.05v81.97
		h43.72v-82.18C2106.67,317.26,2101.77,296.44,2091.98,283.29z"/>
	<polygon class="st0" points="1941,427.92 1984.72,427.92 1985.05,197.83 1941.33,197.83 	"/>
</g>
</svg>
